<?xml version="1.0" encoding="utf-8"?>
<!-- Generator: Adobe Illustrator 12.0.0, SVG Export Plug-In  -->
<!DOCTYPE svg PUBLIC "-//W3C//DTD SVG 1.1//EN" "http://www.w3.org/Graphics/SVG/1.1/DTD/svg11.dtd" [
	<!ENTITY ns_flows "http://ns.adobe.com/Flows/1.0/">
	<!ENTITY ns_svg "http://www.w3.org/2000/svg">
	<!ENTITY ns_xlink "http://www.w3.org/1999/xlink">
]>
<svg  version="1.1" xmlns="&ns_svg;" xmlns:xlink="&ns_xlink;" xmlns:a="http://ns.adobe.com/AdobeSVGViewerExtensions/3.0/"
	 width="470" height="490" viewBox="-84.751 -18.454 470 490" enable-background="new -84.751 -18.454 470 490"
	 xml:space="preserve">
<defs>
</defs>
<path fill="none" stroke="#000000" stroke-width="7" stroke-linecap="round" stroke-linejoin="round" d="M29.625,176.659
	L292.35,18.096c0,0,5.783-4.568,8.777,0.603s-3.811,8.709-3.811,8.709L276.36,39.383c0,0-2.993,2.178-0.816,5.988
	s4.627,10.07,4.627,10.07s-20.684,32.931-24.767,39.735s-15.729,17.891-25.039,23.95c-17.146,11.159-23.951,12.52-25.855,27.761
	c-1.905,15.241,1.089,18.779,3.811,23.134c2.721,4.354,10.069,16.874,11.975,20.412s2.449,8.98-2.994,17.418
	s-20.684,33.204-22.861,37.286s-6.259,5.716-14.152,1.089S77.956,181.451,73.601,178.729s-7.894-1.632-12.792,6.532
	c-2.994,5.171-3.266,9.525-3.266,9.525s-5.443,29.12-6.26,32.387s1.361,6.261,6.26,9.254s45.451,28.305,45.451,28.305
	s9.526,10.614,10.887,12.247s2.177,4.898-1.361,8.709s-13.608,16.602-15.786,18.507s-3.538,2.995-12.792-2.993
	s-13.608-10.071-16.33-6.805s-11.703,18.508-13.064,20.685s-1.361,4.082,0.272,9.525s6.804,22.862,7.621,25.039
	s4.627,5.171,6.804,6.804s47.356,30.754,53.888,34.837s3.539,13.063-3.266,14.152s-5.716-0.544-8.165,1.089
	s-8.709,5.443-10.342,8.981s-3.265,5.715-7.62,9.253s-7.621,6.259-9.526,7.893s-4.082-1.088-5.987-4.082
	s-30.755-48.715-41.642-101.515s-10.343-92.808-7.893-104.238s7.348-20.411,9.798-25.311s-1.36-5.716-3.266-7.349
	s-5.716-4.082-8.981-6.26S26.475,178.942,29.625,176.659z"/>
<polygon fill="#D2232A" points="133.525,240.446 150.421,246.039 138.21,233.092 "/>
<polygon fill="#D2232A" points="240.498,29.899 229.572,43.949 245.859,36.776 "/>
<polygon fill="#D2232A" points="118.911,369.857 101.64,365.561 114.796,377.545 "/>
<circle fill="#FFFFFF" cx="300.833" cy="18.204" r="2.8"/>
<circle fill="#FFFFFF" cx="274.928" cy="41.313" r="2.8"/>
<circle fill="#FFFFFF" cx="279.96" cy="55.477" r="2.8"/>
<circle fill="#FFFFFF" cx="204.667" cy="146.425" r="2.8"/>
<circle fill="#FFFFFF" cx="252.667" cy="99.092" r="2.8"/>
<circle fill="#FFFFFF" cx="221.626" cy="195.254" r="2.8"/>
<circle fill="#FFFFFF" cx="188.266" cy="249.114" r="2.8"/>
<circle fill="#FFFFFF" cx="69.176" cy="177.362" r="2.8"/>
<circle fill="#FFFFFF" cx="51.471" cy="230.664" r="2.8"/>
<circle fill="#FFFFFF" cx="38.984" cy="194.136" r="2.8"/>
<circle fill="#FFFFFF" cx="27.895" cy="226.397" r="2.8"/>
<circle fill="#FFFFFF" cx="25.007" cy="182.022" r="2.8"/>
<circle fill="#FFFFFF" cx="115.023" cy="280.425" r="2.8"/>
<circle fill="#FFFFFF" cx="93.777" cy="305.957" r="2.8"/>
<circle fill="#FFFFFF" cx="69.176" cy="293.283" r="2.8"/>
<circle fill="#FFFFFF" cx="53.521" cy="317.697" r="2.8"/>
<circle fill="#FFFFFF" cx="62.84" cy="350.685" r="2.8"/>
<circle fill="#FFFFFF" cx="126.765" cy="398.768" r="2.8"/>
<circle fill="#FFFFFF" cx="105.055" cy="410.925" r="2.8"/>
<circle fill="#FFFFFF" cx="82.782" cy="433.059" r="2.8"/>
<rect x="161.613" y="228.267" transform="matrix(-0.5418 0.8405 -0.8405 -0.5418 444.2761 217.0455)" fill="#FFFFFF" width="2.725" height="2.718"/>
<rect x="160.122" y="230.57" transform="matrix(-0.5431 0.8396 -0.8396 -0.5431 443.9326 222.3164)" width="2.724" height="2.723"/>
<rect x="158.636" y="232.873" transform="matrix(-0.5423 0.8402 -0.8402 -0.5423 443.5629 226.8451)" fill="#FFFFFF" width="2.72" height="2.723"/>
<rect x="157.144" y="235.182" transform="matrix(-0.5418 0.8405 -0.8405 -0.5418 443.2037 231.4863)" width="2.727" height="2.725"/>
<polygon fill="#FFFFFF" points="157.421,240.728 158.901,238.441 156.61,236.964 155.136,239.255 "/>
<rect x="154.167" y="239.794" transform="matrix(-0.5431 0.8396 -0.8396 -0.5431 442.4869 241.5513)" width="2.724" height="2.724"/>
<rect x="152.679" y="242.099" transform="matrix(-0.5417 0.8406 -0.8406 -0.5417 442.1302 245.8671)" fill="#FFFFFF" width="2.722" height="2.723"/>
<polygon points="152.954,247.647 154.435,245.364 152.145,243.885 150.669,246.174 "/>
<polygon points="165.685,232.996 167.162,230.704 164.874,229.233 163.396,231.52 "/>
<polygon fill="#FFFFFF" points="164.194,235.303 165.67,233.014 163.384,231.535 161.91,233.824 "/>
<rect x="160.94" y="234.365" transform="matrix(-0.5431 0.8397 -0.8397 -0.5431 448.3775 227.4677)" width="2.721" height="2.722"/>
<rect x="159.449" y="236.671" transform="matrix(-0.5422 0.8402 -0.8402 -0.5422 448.0094 231.9804)" fill="#FFFFFF" width="2.723" height="2.723"/>
<rect x="157.962" y="238.973" transform="matrix(-0.543 0.8397 -0.8397 -0.543 447.6537 237.0556)" width="2.724" height="2.726"/>
<polygon fill="#FFFFFF" points="158.241,244.525 159.714,242.239 157.432,240.76 155.954,243.048 "/>
<rect x="154.981" y="243.587" transform="matrix(-0.5416 0.8406 -0.8406 -0.5416 446.9323 246.2022)" width="2.724" height="2.725"/>
<rect x="153.495" y="245.895" transform="matrix(-0.5416 0.8406 -0.8406 -0.5416 446.5803 251.0065)" fill="#FFFFFF" width="2.724" height="2.722"/>
<polygon fill="#FFFFFF" points="167.991,234.483 169.465,232.197 167.182,230.718 165.698,233.006 "/>
<rect x="163.093" y="225.972" transform="matrix(-0.5426 0.84 -0.84 -0.5426 444.643 212.5282)" width="2.722" height="2.723"/>
<rect x="165.4" y="227.46" transform="matrix(-0.5415 0.8407 -0.8407 -0.5415 449.4311 212.531)" fill="#FFFFFF" width="2.72" height="2.72"/>
<rect x="167.701" y="228.948" transform="matrix(-0.5431 0.8397 -0.8397 -0.5431 454.263 213.419)" width="2.723" height="2.723"/>
<rect x="164.738" y="233.545" transform="matrix(-0.5424 0.8401 -0.8401 -0.5424 453.5373 222.7664)" width="2.719" height="2.721"/>
<rect x="163.244" y="235.853" transform="matrix(-0.5419 0.8404 -0.8404 -0.5419 453.1707 227.4304)" fill="#FFFFFF" width="2.724" height="2.721"/>
<rect x="161.755" y="238.158" transform="matrix(-0.5426 0.84 -0.84 -0.5426 452.8181 232.4659)" width="2.724" height="2.722"/>
<rect x="160.269" y="240.464" transform="matrix(-0.5418 0.8405 -0.8405 -0.5418 452.4546 236.9785)" fill="#FFFFFF" width="2.721" height="2.721"/>
<rect x="158.779" y="242.771" transform="matrix(-0.542 0.8404 -0.8404 -0.542 452.0981 241.8746)" width="2.722" height="2.72"/>
<polygon fill="#FFFFFF" points="159.056,248.32 160.532,246.034 158.245,244.556 156.772,246.844 "/>
<rect x="155.801" y="247.381" transform="matrix(-0.5431 0.8397 -0.8397 -0.5431 451.3783 251.856)" width="2.723" height="2.723"/>
<circle fill="#FFFFFF" stroke="#000000" cx="189.022" cy="265.326" r="9.715"/>
<text transform="matrix(1 0 0 1 185.0225 269.5576)" font-family="'Arial-BoldMT'" font-size="13">1</text>
<circle fill="#FFFFFF" stroke="#000000" cx="238.208" cy="196.466" r="9.715"/>
<text transform="matrix(1 0 0 1 234.207 200.6973)" font-family="'Arial-BoldMT'" font-size="13">2</text>
<circle fill="#FFFFFF" stroke="#000000" cx="222.881" cy="148.882" r="9.715"/>
<text transform="matrix(1 0 0 1 218.8799 153.1133)" font-family="'Arial-BoldMT'" font-size="13">3</text>
<circle fill="#FFFFFF" stroke="#000000" cx="266.215" cy="108.215" r="9.715"/>
<text transform="matrix(1 0 0 1 262.2139 112.4468)" font-family="'Arial-BoldMT'" font-size="13">4</text>
<circle fill="#FFFFFF" stroke="#000000" cx="288.215" cy="71.548" r="9.715"/>
<text transform="matrix(1 0 0 1 284.2139 75.7798)" font-family="'Arial-BoldMT'" font-size="13">5</text>
<circle fill="#FFFFFF" stroke="#000000" cx="294.215" cy="48.215" r="9.715"/>
<text transform="matrix(1 0 0 1 290.2139 52.4463)" font-family="'Arial-BoldMT'" font-size="13">6</text>
<circle fill="#FFFFFF" stroke="#000000" cx="315.548" cy="10.215" r="9.715"/>
<text transform="matrix(1 0 0 1 311.5469 14.4463)" font-family="'Arial-BoldMT'" font-size="13">7</text>
<circle fill="#FFFFFF" stroke="#000000" cx="10.215" cy="171.548" r="9.715"/>
<text transform="matrix(1 0 0 1 6.2139 175.7798)" font-family="'Arial-BoldMT'" font-size="13">8</text>
<circle fill="#FFFFFF" stroke="#000000" cx="17.548" cy="199.549" r="9.715"/>
<text transform="matrix(1 0 0 1 13.5479 203.7793)" font-family="'Arial-BoldMT'" font-size="13">9</text>
<circle fill="#FFFFFF" stroke="#000000" cx="10.673" cy="226.674" r="9.715"/>
<text transform="matrix(1 0 0 1 3.0571 230.9043)" font-family="'Arial-BoldMT'" font-size="13">10</text>
<circle fill="#FFFFFF" stroke="#000000" cx="79.833" cy="449.896" r="9.715"/>
<text transform="matrix(1 0 0 1 72.2168 454.126)" font-family="'Arial-BoldMT'" font-size="13">11</text>
<circle fill="#FFFFFF" stroke="#000000" cx="116.942" cy="422.345" r="9.715"/>
<text transform="matrix(1 0 0 1 109.3267 426.5752)" font-family="'Arial-BoldMT'" font-size="13">12</text>
<circle fill="#FFFFFF" stroke="#000000" cx="144.061" cy="402.006" r="9.715"/>
<text transform="matrix(1 0 0 1 136.4453 406.2363)" font-family="'Arial-BoldMT'" font-size="13">13</text>
<circle fill="#FFFFFF" stroke="#000000" cx="82.197" cy="346.073" r="9.715"/>
<text transform="matrix(1 0 0 1 74.5811 350.3037)" font-family="'Arial-BoldMT'" font-size="13">14</text>
<circle fill="#FFFFFF" stroke="#000000" cx="103.383" cy="320.649" r="9.715"/>
<text transform="matrix(1 0 0 1 95.7676 324.8799)" font-family="'Arial-BoldMT'" font-size="13">17</text>
<circle fill="#FFFFFF" stroke="#000000" cx="130.502" cy="284.209" r="9.715"/>
<text transform="matrix(1 0 0 1 122.8862 288.4395)" font-family="'Arial-BoldMT'" font-size="13">18</text>
<circle fill="#FFFFFF" stroke="#000000" cx="68.638" cy="224.887" r="9.715"/>
<text transform="matrix(1 0 0 1 61.022 229.1172)" font-family="'Arial-BoldMT'" font-size="13">19</text>
<circle fill="#FFFFFF" stroke="#000000" cx="88.977" cy="168.955" r="9.715"/>
<text transform="matrix(1 0 0 1 81.3608 173.1855)" font-family="'Arial-BoldMT'" font-size="13">20</text>
<circle fill="#FFFFFF" stroke="#000000" cx="71.18" cy="321.497" r="9.715"/>
<text transform="matrix(1 0 0 1 63.564 325.7275)" font-family="'Arial-BoldMT'" font-size="13">15</text>
<circle fill="#FFFFFF" stroke="#000000" cx="62.706" cy="277.43" r="9.715"/>
<text transform="matrix(1 0 0 1 55.0898 281.6602)" font-family="'Arial-BoldMT'" font-size="13">16</text>
</svg>
